<mxfile host="app.diagrams.net" agent="Mozilla/5.0 (Windows NT 10.0; Win64; x64) AppleWebKit/537.36 (KHTML, like Gecko) Chrome/139.0.0.0 Safari/537.36 Edg/139.0.0.0" version="28.0.9">
  <diagram name="Page-1" id="xtybohzdGDUQa_n5WqXw">
    <mxGraphModel dx="1418" dy="786" grid="1" gridSize="10" guides="1" tooltips="1" connect="1" arrows="1" fold="1" page="1" pageScale="1" pageWidth="850" pageHeight="1100" background="none" math="0" shadow="1">
      <root>
        <mxCell id="0" />
        <mxCell id="1" parent="0" />
        <mxCell id="4ynLXAwZsBr2HOhLdfNw-24" value="" style="edgeStyle=orthogonalEdgeStyle;rounded=0;orthogonalLoop=1;jettySize=auto;html=1;" edge="1" parent="1" source="4ynLXAwZsBr2HOhLdfNw-22" target="4ynLXAwZsBr2HOhLdfNw-23">
          <mxGeometry relative="1" as="geometry" />
        </mxCell>
        <mxCell id="4ynLXAwZsBr2HOhLdfNw-28" value="" style="edgeStyle=orthogonalEdgeStyle;rounded=0;orthogonalLoop=1;jettySize=auto;html=1;" edge="1" parent="1" source="4ynLXAwZsBr2HOhLdfNw-22" target="4ynLXAwZsBr2HOhLdfNw-27">
          <mxGeometry relative="1" as="geometry" />
        </mxCell>
        <mxCell id="4ynLXAwZsBr2HOhLdfNw-22" value="build" style="ellipse;whiteSpace=wrap;html=1;" vertex="1" parent="1">
          <mxGeometry x="370" y="370" width="120" height="80" as="geometry" />
        </mxCell>
        <mxCell id="4ynLXAwZsBr2HOhLdfNw-26" value="" style="edgeStyle=orthogonalEdgeStyle;rounded=0;orthogonalLoop=1;jettySize=auto;html=1;" edge="1" parent="1" source="4ynLXAwZsBr2HOhLdfNw-23" target="4ynLXAwZsBr2HOhLdfNw-25">
          <mxGeometry relative="1" as="geometry" />
        </mxCell>
        <mxCell id="4ynLXAwZsBr2HOhLdfNw-23" value="develop" style="ellipse;whiteSpace=wrap;html=1;" vertex="1" parent="1">
          <mxGeometry x="370" y="210" width="120" height="80" as="geometry" />
        </mxCell>
        <mxCell id="4ynLXAwZsBr2HOhLdfNw-25" value="plan" style="ellipse;whiteSpace=wrap;html=1;" vertex="1" parent="1">
          <mxGeometry x="370" y="50" width="120" height="80" as="geometry" />
        </mxCell>
        <mxCell id="4ynLXAwZsBr2HOhLdfNw-32" value="" style="edgeStyle=orthogonalEdgeStyle;rounded=0;orthogonalLoop=1;jettySize=auto;html=1;" edge="1" parent="1" source="4ynLXAwZsBr2HOhLdfNw-27" target="4ynLXAwZsBr2HOhLdfNw-31">
          <mxGeometry relative="1" as="geometry" />
        </mxCell>
        <mxCell id="4ynLXAwZsBr2HOhLdfNw-27" value="testing" style="ellipse;whiteSpace=wrap;html=1;" vertex="1" parent="1">
          <mxGeometry x="370" y="530" width="120" height="80" as="geometry" />
        </mxCell>
        <mxCell id="4ynLXAwZsBr2HOhLdfNw-31" value="release" style="ellipse;whiteSpace=wrap;html=1;" vertex="1" parent="1">
          <mxGeometry x="370" y="690" width="120" height="80" as="geometry" />
        </mxCell>
      </root>
    </mxGraphModel>
  </diagram>
</mxfile>
